<svg width="40" height="40" viewBox="0 0 40 40" fill="none" xmlns="http://www.w3.org/2000/svg">
<g clip-path="url(#clip0_6_66)">
<path d="M32.5 32.5H7.5C6.83696 32.5 6.20107 32.2366 5.73223 31.7678C5.26339 31.2989 5 30.663 5 30V12.5C5 11.837 5.26339 11.2011 5.73223 10.7322C6.20107 10.2634 6.83696 10 7.5 10H12.5L15 6.25H25L27.5 10H32.5C33.163 10 33.7989 10.2634 34.2678 10.7322C34.7366 11.2011 35 11.837 35 12.5V30C35 30.663 34.7366 31.2989 34.2678 31.7678C33.7989 32.2366 33.163 32.5 32.5 32.5Z" stroke="black" stroke-width="3" stroke-linecap="round" stroke-linejoin="round"/>
<path d="M26.875 18.75L24.4219 16.2032C23.2475 15.0334 21.6575 14.3766 20 14.3766C18.3425 14.3766 16.7525 15.0334 15.5781 16.2032" stroke="black" stroke-width="3" stroke-linecap="round" stroke-linejoin="round"/>
<path d="M24.4219 25.0469C23.2475 26.2167 21.6575 26.8735 20 26.8735C18.3425 26.8735 16.7525 26.2167 15.5781 25.0469L13.125 22.5" stroke="black" stroke-width="3" stroke-linecap="round" stroke-linejoin="round"/>
<path d="M27.5 15L26.875 18.75L23.125 19.375" stroke="black" stroke-width="3" stroke-linecap="round" stroke-linejoin="round"/>
<path d="M16.875 21.875L13.125 22.5L12.5 26.25" stroke="black" stroke-width="3" stroke-linecap="round" stroke-linejoin="round"/>
</g>
<defs>
<clipPath id="clip0_6_66">
<rect width="40" height="40" fill="white"/>
</clipPath>
</defs>
</svg>
